HIERARCHY
ROOT Hips
{
  OFFSET 40.9192 92.6879 18.85
  CHANNELS 6 Xposition Yposition Zposition Zrotation Xrotation Yrotation
  JOINT LeftUpLeg
  {
    OFFSET 8.64259 1.95398 -2.38835
    CHANNELS 3 Zrotation Xrotation Yrotation
    JOINT LeftLeg
    {
      OFFSET 43.7702 0 0
      CHANNELS 3 Zrotation Xrotation Yrotation
      JOINT LeftFoot
      {
        OFFSET 40.6238 0 0
        CHANNELS 3 Zrotation Xrotation Yrotation
        JOINT LeftToeBase
        {
          OFFSET 12.7242 0 0
          CHANNELS 3 Zrotation Xrotation Yrotation
          End Site
          {
            OFFSET 0 0 0
          }
        }
      }
    }
  }
  JOINT RightUpLeg
  {
    OFFSET -8.2249 1.95398 -2.59336
    CHANNELS 3 Zrotation Xrotation Yrotation
    JOINT RightLeg
    {
      OFFSET 43.5653 0 0
      CHANNELS 3 Zrotation Xrotation Yrotation
      JOINT RightFoot
      {
        OFFSET 40.6238 0 0
        CHANNELS 3 Zrotation Xrotation Yrotation
        JOINT RightToeBase
        {
          OFFSET 12.7242 0 0
          CHANNELS 3 Zrotation Xrotation Yrotation
          End Site
          {
            OFFSET 0 0 0
          }
        }
      }
    }
  }
  JOINT Spine
  {
    OFFSET 0.165834 0.87714 6.61349
    CHANNELS 3 Zrotation Xrotation Yrotation
    JOINT Spine1
    {
      OFFSET 7.38963 1.71661e-005 0
      CHANNELS 3 Zrotation Xrotation Yrotation
      JOINT Spine2
      {
        OFFSET 11.9445 1.14441e-005 0
        CHANNELS 3 Zrotation Xrotation Yrotation
        JOINT Spine3
        {
          OFFSET 14.7254 4.19617e-005 0
          CHANNELS 3 Zrotation Xrotation Yrotation
          JOINT Spine4
          {
            OFFSET 10.9679 0 0
            CHANNELS 3 Zrotation Xrotation Yrotation
            JOINT RightShoulder
            {
              OFFSET 2.46616 -1.6653 3.69651
              CHANNELS 3 Zrotation Xrotation Yrotation
              JOINT RightArm
              {
                OFFSET 13.0012 0 0
                CHANNELS 3 Zrotation Xrotation Yrotation
                JOINT RightForeArm
                {
                  OFFSET 28.7848 1.52588e-005 0
                  CHANNELS 3 Zrotation Xrotation Yrotation
                  JOINT RightHand
                  {
                    OFFSET 26.5688 1.52588e-005 0
                    CHANNELS 3 Zrotation Xrotation Yrotation
                    End Site
                    {
                      OFFSET 0 0 0
                    }
                  }
                }
              }
            }
            JOINT LeftShoulder
            {
              OFFSET 2.38034 -1.29275 -3.7523
              CHANNELS 3 Zrotation Xrotation Yrotation
              JOINT LeftArm
              {
                OFFSET 16.3182 6.10351e-005 0
                CHANNELS 3 Zrotation Xrotation Yrotation
                JOINT LeftForeArm
                {
                  OFFSET 27.0901 0 0
                  CHANNELS 3 Zrotation Xrotation Yrotation
                  JOINT LeftHand
                  {
                    OFFSET 24.5451 1.52588e-005 0
                    CHANNELS 3 Zrotation Xrotation Yrotation
                    End Site
                    {
                      OFFSET 0 0 0
                    }
                  }
                }
              }
            }
            JOINT Neck
            {
              OFFSET 5.0226 -0.0266342 0
              CHANNELS 3 Zrotation Xrotation Yrotation
              JOINT Head
              {
                OFFSET 6.69363 2.86102e-005 0
                CHANNELS 3 Zrotation Xrotation Yrotation
                End Site
                {
                  OFFSET 0 0 0
                }
              }
            }
          }
        }
      }
    }
  }
}
MOTION
Frames:	6
Frame Time:	0.0416667
68.903 96.458 -3.51501 94.963 -45.6499 91.089 -170.535 11.2456 89.1449 -19.8037 11.9133 -4.78541 58.9084 -0.0994836 5.60552 33.372 3.84343 -6.14926 178.264 10.269 86.7483 -58.3305 -2.60897 -5.43618 55.6214 -0.763991 -0.348939 40.3718 0.378635 -5.64118 0.638783 7.57825 -89.5193 11.7123 1.49613 0.800532 0.0419885 1.52991 0.733901 -22.4959 1.18635 1.21319 -2.4833 1.18638 1.21319 91.9785 -46.7499 -98.4459 20.6031 -11.6164 -8.45973 -11.6468 -21.2313 -59.1029 -10.6474 -0.922819 2.92877 -96.2916 -45.9741 68.0916 -28.755 12.028 15.5245 3.03649 7.03297 -35.8304 12.5644 0.838302 2.74149 11.1888 -0.811059 0.503671 0.63945 -0.876008 0.470087 
59.538 94.3916 -8.55418 93.9918 -46.2058 89.5154 -170.467 19.9447 88.9735 -22.5897 10.1588 -4.44079 58.9558 0.167326 2.21983 25.7207 -2.61676 1.29617 177.652 2.17114 84.5528 -56.8868 -10.9709 -7.6686 51.97 1.0895 1.01635 41.9156 0.476756 -3.55812 1.04734 7.47561 -89.3788 11.9132 2.37519 0.983372 0.244153 2.41616 0.877827 -22.3009 1.96985 1.6519 -2.28824 1.96985 1.65189 91.4779 -46.1061 -99.3899 18.8492 -8.3015 -14.4753 -16.404 -20.3839 -64.6488 -11.7041 -1.05161 3.55938 -96.0917 -45.7447 68.32 -30.314 11.5614 18.5954 1.66122 8.85528 -28.1594 11.732 0.987829 4.33029 11.69 -2.3426 -0.232318 0.627612 -2.19261 1.02933 
48.9146 93.4811 -14.7525 93.22 -48.0095 91.4661 -171.358 23.943 92.3542 -15.1919 8.30549 -3.00967 60.0494 1.11497 1.85195 37.405 6.91748 6.72957 177.193 -3.31752 87.1903 -42.8813 -16.0527 -8.26925 58.6977 -0.912089 -0.369741 52.3519 1.14935 -0.0579645 1.37541 7.48696 -89.7602 11.9049 2.8478 0.168636 0.23709 2.85245 0.0430337 -22.3209 2.66537 1.01733 -2.30829 2.66538 1.01733 90.2285 -43.1823 -102.143 20.3613 -5.44156 -17.8554 -17.9451 -20.114 -64.2506 -11.1046 -1.11352 4.37518 -96.8229 -48.0527 67.9923 -29.2422 9.43047 18.4746 0.753315 7.63234 -23.0519 12.0163 1.10857 5.10652 10.6324 -1.66199 2.21462 1.14619 -2.0717 0.202891 
37.8865 93.8894 -21.3545 94.2509 -46.1839 94.6461 -170.637 21.8225 94.5044 -7.93089 5.32141 -2.92481 63.2532 4.70647 3.78476 40.1344 9.4008 7.97603 174.895 -2.62191 90.9758 -35.0557 -10.2472 -3.19596 70.9243 -5.22981 -2.7015 45.0824 0.652142 -2.54545 1.15859 7.67987 -90.1659 11.5192 2.22752 -0.557221 -0.149981 2.20082 -0.654764 -22.7004 2.29196 0.138363 -2.68778 2.29194 0.138354 91.2538 -42.7242 -100.556 20.9236 -7.75204 -18.3143 -14.529 -21.0357 -60.7839 -10.6902 -1.04258 3.98045 -98.1605 -49.3574 66.454 -27.8739 9.93353 17.4351 0.882911 6.62869 -26.1346 12.5523 1.05294 4.33185 10.265 -0.850531 3.7107 1.84663 -1.57278 0.142723 
29.2632 95.9249 -26.0546 95.629 -42.5424 93.6066 -169.658 19.0145 92.3868 -23.0419 6.61713 -3.21472 57.212 -0.157375 0.914148 39.8427 9.08378 7.01891 175.104 1.1138 91.7576 -32.6483 -5.75674 -1.97528 70.0411 -4.40389 -2.27195 38.2579 0.392003 -4.03116 0.679554 7.72592 -89.9892 11.4235 1.35727 -0.115588 -0.246756 1.35085 -0.175225 -22.7872 1.32922 0.297737 -2.77459 1.32921 0.29772 90.7886 -45.4218 -100.66 21.2065 -10.6338 -8.53017 -13.5851 -24.4137 -56.5251 -9.69226 -0.9979 3.89752 -98.5071 -49.0171 65.8264 -26.3915 11.5786 14.1672 0.812336 6.38388 -30.0501 16.1283 1.17722 3.42156 8.8621 -1.12353 2.85429 1.78439 -1.62854 0.221769 
22.2401 97.6155 -30.614 96.8458 -40.357 92.5984 -168.592 12.3474 91.5267 -40.2033 8.92186 -3.31663 55.8049 -0.734771 1.59824 37.3375 6.93405 9.74823 174.919 4.76259 90.8829 -30.7511 -5.51361 -1.72138 65.0249 -2.2831 -1.22101 35.4026 0.353217 -3.43085 0.374816 7.67084 -89.826 11.5314 0.827163 0.261854 -0.139293 0.837878 0.22519 -22.6759 0.710216 0.49835 -2.66325 0.710193 0.498346 91.9586 -47.5765 -98.3055 23.0614 -12.0675 2.45589 -12.3183 -30.6665 -49.3423 -4.82687 -0.816537 4.15795 -97.9269 -47.9241 66.299 -24.319 12.0119 10.5776 2.88808 6.19687 -38.3308 18.0517 1.19878 2.77806 7.75666 -1.34181 2.29479 1.19336 -1.70117 0.549314 
